<svg xmlns="http://www.w3.org/2000/svg" fill="none" viewBox="0 0 250 250" height="250" width="250">
  <path fill="#2E3120" d="M103.8365 205.567c-7.8665 0 -10.2265 -4.914 -12.945 -14.3325 -0.1695 -0.651 -0.21 -1.329 -0.1185 -1.9955s0.3125 -1.3085 0.6515 -1.889c0.356 -0.729 0.984 -1.2875 1.7475 -1.5545 3.286 -0.825 6.6565 -0.885 9.9175 -0.945 4.481 -0.08 8.7225 -0.155 12.885 -1.9995 1.38 -0.6905 2.7105 -1.4755 3.983 -2.35 3.8035 -2.4545 8.11 -5.234 11.9935 -3.934 2.614 0.8745 4.058 2.1545 4.297 3.804 0.5525 3.8245 -5.7555 8.249 -9.928 11.1785 -0.7415 0.5 -1.384 0.9695 -1.882 1.3445 -1.6375 1.3115 -3.192 2.724 -4.655 4.2295 -3.5695 3.4995 -7.6225 7.499 -12.387 8.1735 -1.1785 0.1745 -2.3685 0.265 -3.5595 0.27M93.5405 187.25c-0.3585 0.1825 -0.646 0.48 -0.8165 0.845 -0.477 0.823 -0.616 1.8 -0.3885 2.7245 3.027 10.5335 5.098 14.3875 14.8765 12.998 4.2815 -0.61 7.966 -4.2445 11.5505 -7.759 1.5085 -1.553 3.1135 -3.009 4.8045 -4.359 0.498 -0.39 1.17 -0.845 1.922 -1.375 3.4 -2.3845 9.723 -6.824 9.305 -9.7335 -0.1545 -1.0445 -1.2595 -1.9145 -3.291 -2.5945 -3.206 -1.075 -7.194 1.5 -10.714 3.7695 -1.338 0.921 -2.7405 1.743 -4.197 2.4595 -4.441 1.9995 -9.0265 2.0645 -13.443 2.1445 -3.196 0.035 -6.487 0.115 -9.6085 0.88" stroke-width="0.5"></path>
  <path fill="#2E3120" d="M236.2205 107.453c-2.1475 -0.0125 -4.2375 -0.7015 -5.9745 -1.97 -6.4725 -4.584 -9.1805 -15.6425 -9.7035 -20.8515 -0.722 -7.264 2.061 -13.083 4.7495 -18.702 1.454 -3.0395 2.9525 -6.179 3.9135 -9.5485 0.8065 -2.8295 0.886 -6.449 0.996 -10.27835 0.204 -8.8486 0.438 -18.877 10.0865 -22.1065 2.141 -0.71985 2.9875 -0.29495 3.829 0.32495 0.1045 0.075 0.209 0.155 0.3235 0.22995 0.0495 0.03055 0.096 0.0657 0.1395 0.105l0.936 0.95985c0.0335 0.03135 0.064 0.0666 0.0895 0.105 1.2295 1.8347 0.702 5.4691 0.0845 7.3338 -2.599 7.82375 -5.2525 17.1723 -5.2525 27.1708 0 4.759 2.156 8.4435 4.441 12.348 3.6795 6.294 7.8515 13.4275 2.7485 26.2455 -1.7725 4.4495 -4.745 7.314 -8.5885 8.279 -0.921 0.234 -1.8675 0.3535 -2.818 0.355m5.91 -82.337c-0.482 0.02855 -0.957 0.12965 -1.409 0.29995 -8.653 2.8995 -8.8625 11.95805 -9.0665 20.72165 -0.0895 3.9294 -0.174 7.6389 -1.0355 10.6584 -0.996 3.4995 -2.524 6.689 -3.983 9.7785 -2.7185 5.689 -5.2875 11.058 -4.6055 17.907 0.5775 5.779 3.4855 15.8125 9.0715 19.772 1.0745 0.785 2.3115 1.3175 3.6185 1.558 1.3075 0.2405 2.652 0.183 3.934 -0.1685 4.247 -1.0645 6.4725 -4.604 7.563 -7.3835 4.834 -12.1335 1.0305 -18.637 -2.649 -24.926 -2.285 -3.9045 -4.645 -7.939 -4.645 -13.108 0 -10.2135 2.6935 -19.707 5.327 -27.6457 0.568 -1.70475 0.9165 -4.69425 0.1295 -5.96405l-0.8265 -0.84485c-0.1145 -0.075 -0.224 -0.155 -0.3335 -0.235 -0.3 -0.2689 -0.688 -0.41825 -1.09 -0.4199" stroke-width="0.5"></path>
  <path fill="#2E3120" d="M101.566 138.738c-0.3115 0.001 -0.6225 -0.021 -0.931 -0.065 -2.33 -0.335 -3.983 -1.91 -4.899 -4.6845s0.707 -5.434 2.28 -7.9985c0.996 -1.61 1.917 -3.1345 2.151 -4.5545 2.071 -12.498 -5.158 -20.6465 -21.493 -24.291l-0.6775 -0.15c-2.4195 -0.535 -4.9185 -1.085 -7.0745 -2.3345 -0.155 -0.091 -0.297 -0.202 -0.423 -0.33 -0.2855 -0.276 -0.482 -0.631 -0.565 -1.0195 -0.0835 -0.3885 -0.0495 -0.7935 0.0975 -1.1625s0.4 -0.686 0.7275 -0.91c0.327 -0.224 0.713 -0.345 1.109 -0.3475 3.6645 -0.095 6.816 -0.365 9.599 -0.6 9.2055 -0.775 15.852 -1.3345 29.912 4.9395 9.3105 4.154 12.447 11.543 9.848 23.256 -0.798 3.6485 -2.267 7.116 -4.3315 10.2235 -2.0165 2.9145 -9.5195 10.0285 -15.3295 10.0285m-11.8545 -47.4275c-2.6135 0 -5.2125 0.22 -8.115 0.465 -2.803 0.24 -5.9745 0.4995 -9.689 0.6045 -0.104 -0.0065 -0.208 0.0205 -0.2965 0.0765 -0.088 0.056 -0.157 0.1385 -0.196 0.2355 -0.039 0.0975 -0.0465 0.205 -0.0215 0.3065 0.025 0.102 0.081 0.1935 0.161 0.2615 0.0345 0.0345 0.073 0.0645 0.1145 0.09 1.9565 1.135 4.341 1.66 6.6465 2.1695l0.682 0.15c17.251 3.8495 24.8935 12.598 22.643 25.996 -0.2835 1.71 -1.334 3.4245 -2.35 5.089 -1.4635 2.385 -2.8425 4.6395 -2.1405 6.749 0.7365 2.22 1.9465 3.4195 3.699 3.6745 4.949 0.715 12.7305 -6.314 14.817 -9.3385 1.9455 -2.954 3.336 -6.241 4.102 -9.6985 2.445 -11.043 -0.3285 -17.697 -8.9965 -21.5615 -9.4295 -4.1995 -15.2895 -5.269 -21.06 -5.269" stroke-width="0.5"></path>
  <path fill="#2E3120" d="M79.6 5.7341c-1.0655 1.8047 -2.171 3.6744 -2.171 5.999 0 1.82475 0.762 3.45945 1.4935 5.0442 0.6125 1.1625 1.0635 2.4039 1.3395 3.68945 0.5725 3.4994 -1.4935 6.49895 -3.296 8.43365 -5.5065 5.82405 -16.883 10.19335 -24.346 9.3535 -3.7588 -0.42495 -6.23325 -1.68975 -7.56255 -3.8594 -2.5989 -4.23435 -0.3485 -11.2732 1.9616 -17.5372 0.3485 -0.93985 0.68705 -1.9697 1.04555 -3.0595 1.24965 -3.7844 2.6634 -8.0787 4.9789 -10.458335 0.249 -0.24996 0.5475 -0.539915 0.886 -0.86486 0.712 -0.69489 1.5735 -1.529755 2.4245 -2.4596074h-2.036c-0.498 0.4999224 -0.996 0.9698474 -1.399 1.3797774 -0.3435 0.33495 -0.6525 0.6349 -0.9065 0.88986C49.4238 4.914215 47.9501 9.3835 46.65065 13.32785c-0.3535 1.07985 -0.6871 2.0947 -1.02565 2.99955 -2.4346 6.60395 -4.7995 14.04275 -1.81225 18.85195 1.5683 2.5546 4.48085 4.08935 8.67275 4.5643 0.6795 0.07535 1.363 0.1121 2.0465 0.11 7.757 0 18.247 -4.31935 23.5495 -9.92345 2.9425 -3.1095 4.217 -6.46395 3.684 -9.70345 -0.297 -1.4222 -0.788 -2.79655 -1.4585 -4.08435 -0.697 -1.49975 -1.3595 -2.9145 -1.3595 -4.4093 0 -1.91465 0.951 -3.4994 1.9615 -5.23415C81.9995 4.649255 83.2045 2.594585 83.115 0h-1.494c0.075 2.169655 -0.9655 3.909375 -2.021 5.7341" stroke-width="0.5"></path>
  <path fill="#2E3120" d="M25.4512 5.81905c1.77245 1.2998 4.1025 1.59475 6.92045 0.8799C34.7515 6.094 37.4101 3.36946 40.42725 0.014997h-2.02635C35.9862 2.649575 33.75575 4.79923 32.0082 5.24415c-2.4047 0.6099 -4.2568 0.39995 -5.67575 -0.63489 -1.3144 -0.969845 -2.1707 -2.594585 -2.75325 -4.594263h-1.56825C22.6681 2.464605 23.71365 4.54427 25.4512 5.81905" stroke-width="0.5"></path>
  <path fill="#2E3120" d="M94.596 11.04825c-0.4585 3.0495 -1.175 6.99885 -2.679 10.4983 -2.605 5.92565 -5.989 11.4741 -10.062 16.49735 -1.9915 2.4546 -4.7445 4.5993 -7.423 6.67895 -0.732 0.5649 -1.449 1.1198 -2.131 1.67475 -2.4195 1.96925 -5.198 3.4465 -8.18 4.3494 -16.32525 4.954 -23.8282 -8.3088 -31.0822 -21.13675C27.48755 19.80185 22.24495 10.5133 13.35295 9.4185 8.8721 8.8586 4.426085 9.3835 0 10.36835v1.53975c4.396215 -0.99985 8.81235 -1.54975 13.16875 -0.99985 8.15015 0.99985 13.2135 9.9684 18.5706 19.4419 6.14875 10.87325 12.99945 22.99635 25.77465 22.99635 2.392 -0.024 4.767 -0.3995 7.05 -1.115 3.1665 -0.9545 6.1165 -2.52185 8.683 -4.6141 0.677 -0.54495 1.389 -1.09485 2.111 -1.65975 2.748 -2.12965 5.586 -4.3293 7.672 -6.9189 4.16 -5.1402 7.616 -10.81635 10.2765 -16.8773 1.573 -3.6794 2.31 -7.75375 2.778 -10.89325 0.632 -3.72115 0.6725 -7.51938 0.1195 -11.253203h-1.4935c0.5275 3.064508 0.5475 6.678953 -0.1145 11.033253" stroke-width="0.5"></path>
  <path fill="#2E3120" d="M248.9365 157.9895c-1.859 -0.142 -3.7245 -0.165 -5.5865 -0.07 -10.037 0.595 -19.0485 5.4995 -27.766 10.2185 -6.2935 3.4145 -12.8055 6.949 -19.5715 8.7585 -16.674 4.4695 -30.0365 -0.7745 -38.635 -15.1675 -2.7335 -4.569 -4.63 -8.1735 -4.187 -13.043 0.632 -6.9985 3.1665 -12.9975 5.85 -19.3215 1.334 -3.1495 2.7135 -6.409 3.8385 -9.8035 1.5485 -4.6695 1.7825 -9.1435 2.0315 -13.883 0.0795 -1.4995 0.159 -3.0995 0.2935 -4.669 0.229 -2.8045 1.1155 -5.644 1.9915 -8.389 0.7095 -2.12 1.288 -4.282 1.7325 -6.474 1.3695 -7.5485 -2.3945 -20.9465 -7.6025 -27.0405 -6.572 -7.7035 -16.091 -11.0282 -28.289 -9.88335 -12.397 1.16485 -23.659 6.58385 -29.27 9.71335 -8.3395 4.6545 -23.101 11.498 -28.2245 5.0695 -0.313 -0.3835 -0.541 -0.8285 -0.67 -1.307 -0.1285 -0.4785 -0.155 -0.9785 -0.0765 -1.468 0.433 -3.449 4.7245 -7.4985 7.189 -9.3685 1.922 -1.4445 3.983 -2.88435 5.9745 -4.2741 9.7385 -6.7889 19.8055 -13.8128 21.772 -26.65075 1.23 -8.0387 0.3735 -14.4077 -2.111 -20.90165575h-1.613C108.566 6.49895 109.492 12.77295 108.2525 20.7067c-1.887 12.18305 -11.665 19.01695 -21.1645 25.6309 -1.9915 1.39475 -4.0775 2.84455 -6.0195 4.3044 -0.732 0.555 -7.1595 5.499 -7.7765 10.378 -0.103 0.689 -0.061 1.3915 0.1225 2.063s0.5045 1.297 0.943 1.8365c2.738 3.4395 7.871 4.0745 15.2645 1.885 4.3365 -1.285 9.33 -3.4995 14.8515 -6.579s16.5545 -8.394 28.6825 -9.5285c11.685 -1.09995 20.776 2.0545 27.0195 9.3635 4.879 5.714 8.5435 18.737 7.264 25.796 -0.4355 2.13 -0.999 4.232 -1.688 6.294 -0.881 2.8245 -1.792 5.744 -2.036 8.7135 -0.1345 1.5945 -0.219 3.1845 -0.299 4.719 -0.239 4.6345 -0.468 8.9985 -1.9565 13.498 -1.105 3.3345 -2.4895 6.564 -3.7935 9.6835 -2.609 6.169 -5.3125 12.548 -5.9745 19.7765 -0.498 5.3095 1.608 9.294 4.391 13.948 6.9055 11.553 16.7335 17.462 28.812 17.462 3.884 -0.032 7.747 -0.575 11.491 -1.6145 6.94 -1.8545 13.527 -5.434 19.9145 -8.8885 8.5735 -4.6545 17.426 -9.4685 27.144 -10.0385 1.8255 -0.0945 3.6545 -0.071 5.477 0.07z" stroke-width="0.5"></path>
  <path fill="#2E3120" d="M248.9365 133.1535c-7.8405 2.634 -15.437 5.9495 -22.703 9.9085 -2.5785 1.4565 -5.057 3.085 -7.4185 4.8745 -2.554 1.8445 -5.193 3.754 -8.011 5.169 -8.9315 4.4995 -25.1325 4.4995 -32.6305 -2.1895 -10.1965 -9.1035 -7.224 -20.297 -4.3515 -31.125 1.0955 -4.1195 2.9325 -9.2435 4.8845 -14.673 6.701 -18.677 15.0455 -41.923 5.8845 -55.7209 -10.201 -15.36255 -32.69 -14.5277 -50.3345 -8.6236 -1.404 0.4699 -3.1465 1.2598 -4.979 2.09965 -5.7005 2.5846 -13.4925 6.134 -17.794 2.89455 -1.2895 -0.96985 -1.9915 -1.9997 -2.1505 -3.1095 -0.309 -2.20965 1.5285 -4.6493 3.3005 -6.9989 0.697 -0.91985 1.3545 -1.7947 1.897 -2.6696 0.727 -1.1648 1.4935 -2.3396 2.2905 -3.5844 5.103 -7.91375 10.8935 -16.8773 9.833 -26.495765 -0.112 -0.977395 -0.2965 -1.94497 -0.553 -2.894538h-1.548c0.29 1.004218 0.4965 2.030928 0.617 3.069508 0.996 9.068545 -4.635 17.792145 -9.604 25.495945 -0.8065 1.2498 -1.568 2.4296 -2.3 3.6044 -0.498 0.81985 -1.15 1.66475 -1.822 2.5646 -1.962 2.5996 -3.983 5.28915 -3.59 8.1187 0.214 1.49975 1.1355 2.89455 2.7335 4.09935 4.9785 3.7695 12.9445 0.16495 19.2975 -2.7296 1.8075 -0.81985 3.51 -1.5947 4.8395 -2.03965 17.1215 -5.7291 38.8885 -6.62895 48.622 8.03375 8.7425 13.168 0.5425 36.019 -6.049 54.3765 -1.957 5.459 -3.809 10.618 -4.919 14.7975 -2.9875 11.263 -6.084 22.916 4.8045 32.6295 3.7835 3.3795 9.768 5.3945 16.838 5.6745 0.5475 0 1.0955 0.035 1.643 0.035 5.825 0 11.63 -1.205 15.8075 -3.2995 2.9275 -1.47 5.616 -3.4145 8.2145 -5.2945 2.3095 -1.748 4.731 -3.341 7.2495 -4.769 7.049 -3.8345 14.409 -7.062 22.001 -9.6485z" stroke-width="0.5"></path>
  <path fill="#2E3120" d="M248.9365 0.014997h-0.1195c0 1.999678 -1.1255 3.949368 -3.311 5.869053 -10.0125 8.7786 -23.5495 7.29885 -36.6535 5.86405 -6.3975 -0.69985 -13.0095 -1.42475 -18.979 -0.87985 -5.2425 0.49995 -9.728 2.91955 -14.0695 5.27415 -4.3415 2.35465 -8.3395 4.5343 -13.114 5.0642 -6.2385 0.6999 -12.945 0.165 -17.9235 -1.41975 -6.796 -2.16465 -10.595 -6.10405 -11.292 -11.71315 -0.3385 -2.70455 0.1795 -5.32914 0.8265 -8.058703h-1.5335c-0.622 2.674573 -1.13 5.419153 -0.7765 8.248703 1.439 11.6531 14.6525 14.7476 25.1525 14.7476 1.908 0 3.814 -0.10345 5.7105 -0.30995 5.0635 -0.5649 9.435 -2.9395 13.662 -5.23915 4.401 -2.3896 8.558 -4.64925 13.492 -5.0992 5.8205 -0.5299 12.0685 0.15 18.6805 0.8749 13.4425 1.46975 27.313 2.9995 37.8035 -6.229 0.9345 -0.79965 1.757 -1.72295 2.4445 -2.74458z" stroke-width="0.5"></path>
  <path fill="#2E3120" d="M185.139 0.014997c-0.8765 0.2899535 -1.7775 0.589908 -2.7035 0.909853 -7.722 2.61958 -16.4745 5.5941 -23.4 1.429775 -1.0295 -0.5867 -1.925 -1.38374 -2.629 -2.339628h-1.782c0.856 1.531008 2.124 2.788878 3.659 3.629418 2.6645 1.564135 5.707 2.358235 8.7925 2.294635 5.2575 0 10.759 -1.8697 15.8375 -3.594425 1.598 -0.544915 3.1115 -1.05983 4.5655 -1.49976 1.241 -0.361749 2.5055 -0.639001 3.7835 -0.829868z" stroke-width="0.5"></path>
  <path fill="#2E3120" d="M248.9365 36.00925c-0.06 0.19995 -0.1295 0.40495 -0.1895 0.6099 -1.882 6.61895 -1.598 13.99785 0.1895 21.31135z" stroke-width="0.5"></path>
  <path fill="#2E3120" d="m248.9365 126.095 -0.767 0.205c-3.485 0.9595 -6.6215 2.7945 -9.634 4.564 -1.4935 0.865 -2.987 1.765 -4.5405 2.5345 -8.902 4.4695 -29.718 9.8435 -37.5095 2 -17.799 -17.8525 -6.7365 -45.613 1.339 -65.8945 0.5825 -1.5 1.3245 -2.9345 2.106 -4.4995 1.5435 -3.0545 3.137 -6.214 3.555 -9.5635 0.7565 -6.0789 -4.187 -9.49835 -8.5485 -12.54285 -5.0435 -3.49945 -9.4 -6.49895 -6.263 -12.82295 0.831 -1.67475 2.1455 -3.2495 3.42 -4.77925 0.3985 -0.4999 0.797 -0.95485 1.175 -1.42975 1.862 -2.33965 5.2975 -1.81475 8.3245 -1.3548 0.528 0.08 1.0355 0.15995 1.5235 0.21995 6.6265 0.8349 22.1505 3.8044 23.216 13.43285 0.7865 7.0839 -2.5295 12.27805 -6.0345 17.7723 -1.4325 2.1675 -2.752 4.4085 -3.953 6.714 -1.115 2.2645 -2.2055 4.354 -3.256 6.354 -7.005 13.3025 -11.6305 22.091 -1.862 39.2535 2.325 4.0895 7.3285 11.278 14.702 13.498 6.074 1.8295 14.6025 0.7595 23.012 -2.5v-1.6495c-8.28 3.3045 -16.7735 4.4695 -22.584 2.7195 -6.8755 -2.0695 -11.62 -8.9135 -13.8355 -12.808 -9.36 -16.4475 -5.128 -24.496 1.887 -37.809 1.0605 -1.9995 2.1555 -4.099 3.281 -6.354 1.171 -2.2615 2.4605 -4.459 3.8635 -6.584 3.485 -5.4989 7.0995 -11.138 6.258 -18.74675 -1.18 -10.6883 -17.535 -13.8778 -24.51 -14.75265 -0.498 -0.06 -0.996 -0.14 -1.494 -0.21495 -3.256 -0.49995 -7.3135 -1.11985 -9.7185 1.8997 -0.368 0.4649 -0.7565 0.92985 -1.15 1.40475 -1.394 1.54415 -2.605 3.2452 -3.6095 5.0692 -3.719 7.4638 1.603 11.1582 6.746 14.72765 4.4015 3.0595 8.5635 5.94405 7.9165 11.12305 -0.3835 3.0895 -1.917 6.129 -3.4055 9.0685 -0.762 1.5 -1.5485 3.0745 -2.161 4.6045 -8.2295 20.6615 -19.5015 48.952 -0.9955 67.524 3.206 3.2245 8.2745 4.4345 13.8505 4.4345 9.0715 0 19.482 -3.2095 25.3915 -6.169 1.5835 -0.795 3.132 -1.705 4.6255 -2.5845 2.9275 -1.725 5.9745 -3.4995 9.2755 -4.4095l0.373 -0.105z" stroke-width="0.5"></path>
  <path fill="#2E3120" d="M248.9365 233.5325c-1.922 0.425 -3.839 0.835 -5.7255 1.235 -8.987 1.9145 -17.4705 3.7245 -23.1515 6.579 -4.2615 2.136 -8.081 5.064 -11.2565 8.6285h2.061c2.8495 -2.9765 6.1855 -5.4415 9.863 -7.289 5.5115 -2.7645 13.9055 -4.554 22.7925 -6.449 1.7875 -0.3795 3.5995 -0.7695 5.417 -1.1695z" stroke-width="0.5"></path>
  <path fill="#2E3120" d="M153.4295 244.626c-1.7175 -8.619 -10.316 -11.0935 -17.9235 -13.273 -5.6955 -1.6395 -11.0775 -3.1845 -12.4815 -7.029 -1.165 -3.1745 0.3585 -7.8685 4.66 -14.3475 1.967 -3.045 4.7205 -5.4965 7.966 -7.094 4.2615 -2.1395 8.0355 -5.309 11.5305 -9.6935 1.0955 -1.3695 1.867 -3.1095 2.614 -4.789 1.7775 -3.9995 3.485 -7.819 9.355 -7.819 0.882 0.0055 1.7625 0.079 2.6335 0.22 4.481 0.69 6.811 2.8295 9.2855 5.0945 3.759 3.444 7.6475 6.9985 18.954 5.114 11.531 -1.9295 23.898 -7.469 34.851 -12.353l1.932 -0.865c2.3025 -1.084 4.54 -2.303 6.701 -3.6495 3.58 -2.1345 7.284 -4.349 11.4515 -5.179 1.339 -0.27 2.6785 -0.47 3.983 -0.605v-1.4995c-1.424 0.145 -2.858 0.355 -4.297 0.6445 -4.401 0.88 -8.2145 3.1595 -11.904 5.3595 -2.111 1.317 -4.297 2.509 -6.547 3.5695l-1.937 0.8645c-10.8385 4.8495 -23.131 10.3485 -34.4775 12.243 -10.5795 1.775 -14.04 -1.3895 -17.6995 -4.744 -2.529 -2.3145 -5.143 -4.7045 -10.062 -5.469 -9.1905 -1.425 -11.5255 3.834 -13.5815 8.4735 -0.6195 1.582 -1.4305 3.0815 -2.415 4.4645 -3.3605 4.209 -6.97 7.2485 -11.033 9.2885 -3.4675 1.72 -6.4125 4.3425 -8.5285 7.5935 -4.65 6.999 -6.1835 11.998 -4.824 15.6975 1.6675 4.5545 7.403 6.204 13.472 7.949 7.528 2.1645 15.315 4.404 16.853 12.128 0.331 1.668 0.552 3.3565 0.6625 5.054h1.4935c-0.112 -1.796 -0.342 -3.583 -0.687 -5.349" stroke-width="0.5"></path>
  <path fill="#2E3120" d="M248.936 220.075c-1.558 0.6645 -3.0965 1.3345 -4.61 1.9995 -9.669 4.2145 -18.7995 8.1935 -29.559 10.3585 -5.75 1.1545 -12.4465 2.2995 -13.562 2.1895 -3.7835 -2.6245 -8.9615 -11.668 -9.9575 -15.7225 -2.1455 -8.6135 6.104 -14.6625 12.736 -19.522 1.12 -0.825 2.1805 -1.5995 3.1565 -2.3645 3.679 -2.8695 7.5575 -3.3595 11.665 -3.8795 2.5875 -0.243 5.1445 -0.745 7.6325 -1.4995 3.1 -1.1305 6.1225 -2.4665 9.046 -3.9995 3.61 -1.7895 7.339 -3.6395 11.023 -4.5645 0.7915 -0.1995 1.608 -0.3495 2.4345 -0.4745v-1.5c-0.941 0.1315 -1.875 0.3115 -2.798 0.54 -3.8385 0.965 -7.642 2.8495 -11.3215 4.674 -2.8625 1.5005 -5.8215 2.8085 -8.857 3.9145 -2.3955 0.726 -4.8575 1.21 -7.3485 1.445 -4.1275 0.525 -8.3895 1.0645 -12.3925 4.189 -0.9555 0.745 -1.991 1.5 -3.1215 2.335 -6.97 5.124 -15.693 11.498 -13.303 21.0965 1.095 4.409 6.4275 13.8225 10.6745 16.6675 0.0895 0.06 0.234 0.1545 0.906 0.1545 1.3195 0 4.69 -0.3795 13.6815 -2.1845 10.9185 -2.1945 20.119 -6.204 29.8725 -10.453l4.0175 -1.74z" stroke-width="0.5"></path>
  <path fill="#2E3120" d="M248.9365 209.3765c-1.8075 0.695 -3.595 1.415 -5.3675 2.1245 -7.403 2.9995 -15.0655 6.074 -23.1905 6.814 -5.5515 0.5 -8.892 -0.15 -9.171 -1.7995 -0.5925 -3.4995 9.9225 -11.3935 16.126 -12.953 5.9345 -1.5 12.233 -3.1895 18.088 -5.539 0.881 -0.355 2.091 -0.795 3.515 -1.28v-1.5645c-1.8425 0.6145 -3.286 1.1345 -4.068 1.4495 -5.775 2.3195 -12.0135 3.9995 -17.8985 5.499 -5.8845 1.5 -18.0675 9.7235 -17.231 14.658 0.453 2.6945 4.107 3.2395 7.194 3.2395 1.454 0 2.778 -0.12 3.5795 -0.195 8.3445 -0.76 16.1065 -3.8895 23.6145 -6.914 1.588 -0.64 3.191 -1.285 4.8095 -1.9145z" stroke-width="0.5"></path>
  <path fill="#2E3120" d="M232.093 249.975h-0.0845c-0.7885 -0.1875 -1.6105 -0.179 -2.3945 0.025z" stroke-width="0.5"></path>
  <path fill="#2E3120" d="M248.9365 245.6455c-1.645 0.9765 -2.9355 2.4545 -3.6845 4.2195 -0.014 0.036 -0.0255 0.0725 -0.035 0.11h1.623c0.502 -0.9815 1.2185 -1.836 2.0965 -2.4995z" stroke-width="0.5"></path>
  <path fill="#2E3120" d="M186.802 230.413c-3.8885 -2.9245 -6.2985 -5.774 -8.3195 -9.8385 -1.7625 -3.539 -2.6985 -7.3135 -3.6045 -10.963 -1.1555 -4.6695 -2.355 -9.4985 -5.2875 -13.918 -1.225 -1.8445 -3.1465 -2.9095 -5.7155 -3.1695 -4.6555 -0.4595 -9.8185 1.885 -10.6795 2.75 -1.603 1.6095 -3.097 2.9245 -4.416 4.084 -3.9035 3.4395 -6.7215 5.924 -8.28 12.183 -1.2245 4.9095 4.74 8.424 11.053 12.143 5.407 3.1895 10.998 6.499 11.8045 10.5385 0.443 2.0795 -0.055 6.754 -0.5525 12.143 -0.1145 1.165 -0.234 2.3745 -0.3485 3.6095h1.4935c0.1095 -1.185 0.224 -2.3445 0.3335 -3.4645 0.5625 -5.744 0.996 -10.2835 0.5525 -12.583 -0.941 -4.714 -6.8255 -8.1785 -12.5165 -11.538 -5.82 -3.4245 -11.3115 -6.664 -10.3605 -10.4985 1.444 -5.804 3.983 -8.0385 7.8165 -11.418 1.3345 -1.175 2.848 -2.4995 4.481 -4.1545 0.5575 -0.56 4.605 -2.3645 8.404 -2.3645 0.3635 0 0.722 0 1.0755 0.05 2.096 0.21 3.654 1.055 4.62 2.4995 2.788 4.1995 3.8985 8.6885 5.0785 13.443 0.926 3.7295 1.877 7.5835 3.714 11.273 2.136 4.2895 4.675 7.294 8.7575 10.3685 4.3065 3.2395 3.545 11.468 2.36 18.362h1.4935c1.24 -7.204 1.947 -15.8425 -2.957 -19.537" stroke-width="0.5"></path>
  <path fill="#2E3120" d="M146.479 164.8985c-6.4375 -4.309 -16.2555 1.5 -25.75 7.079 -5.347 3.1545 -10.4005 6.129 -14.1795 6.819 -10.017 1.8295 -19.113 1.3195 -29.678 0 -2.1905 -0.275 -4.69 -1.235 -7.3285 -2.2495 -4.6555 -1.79 -9.46 -3.6345 -13.6865 -2.22 -4.74 1.585 -6.0394 10.9985 -7.07995 18.557 -0.49785 3.4395 -0.92605 6.694 -1.5882 8.059 -0.2788 0.32 -1.877 1.1695 -3.4154 1.9995 -7.2839 3.8945 -22.43915 11.998 -27.7614 26.391 -1.80725 4.884 -3.42035 10.953 0.17425 14.5575 4.48085 4.4995 13.6965 0.1 19.20295 -2.5245 0.8962 -0.43 1.67285 -0.8 2.30515 -1.07 11.7299 -5.049 28.0651 -9.8885 39.2471 -4.2745 5.606 2.815 11.262 8.369 15.474 13.963h1.887c-4.396 -6.089 -10.5 -12.193 -16.6935 -15.3025 -3.774 -1.8945 -8.0755 -2.6645 -12.5765 -2.6645 -9.4595 0 -19.78535 3.3945 -27.9256 6.899 -0.65715 0.2795 -1.4438 0.6595 -2.3599 1.0945 -5.153 2.4545 -13.7761 6.564 -17.5052 2.8195 -2.9872 -2.9995 -1.4936 -8.4985 0.1693 -12.973 5.12805 -13.8775 19.9298 -21.7915 27.06435 -25.6005 2.8279 -1.5 3.739 -2 4.03775 -2.62 0.77665 -1.5645 1.22475 -4.804 1.7423 -8.5535 0.936 -6.774 2.216 -16.0525 6.0745 -17.342 3.714 -1.245 8.2695 0.5 12.6755 2.1995 2.7335 1.05 5.3075 2.0395 7.6775 2.3395 10.709 1.34 19.9145 1.855 30.136 0 4.038 -0.7345 9.2005 -3.779 14.6675 -6.9985 8.673 -5.1145 18.506 -10.9135 24.1615 -7.129 4.665 3.1245 1.205 9.8285 -1.0855 14.2625 -0.2385 0.46 -0.463 0.895 -0.662 1.295 -2.9575 5.939 -11.675 16.817 -18.0775 19.672l-0.8915 0.3945c-6.1635 2.73 -16.4745 7.299 -17.49 14.448 -1.3545 9.4985 7.249 16.2725 16.355 23.426 4.212 3.3045 8.464 6.659 11.73 10.3335h1.9915c-3.4505 -4.1745 -8.185 -7.8935 -12.7955 -11.498 -8.7575 -6.874 -17.027 -13.368 -15.7975 -22.0265 0.901 -6.329 11.1225 -10.8585 16.614 -13.288l0.896 -0.4c6.796 -3.0345 15.678 -14.0925 18.805 -20.3715l0.652 -1.275c2.38 -4.639 6.363 -12.358 0.5875 -16.2275" stroke-width="0.5"></path>
  <path fill="#2E3120" d="M113.4105 245.161c-2.086 -2.9345 -3.9385 -6.184 -5.7305 -9.3285 -1.1155 -1.955 -2.2705 -3.9995 -3.485 -5.8995 -2.141 -3.439 -3.097 -7.3985 -4.018 -11.233 -1.0255 -4.2295 -2.081 -8.6035 -4.73 -12.328 -3.669 -5.164 -8.5535 -7.499 -13.273 -9.7985 -2.863 -1.3845 -5.83 -2.8195 -8.5685 -4.879 -0.886 -0.67 -1.862 -1.97 -2.8925 -3.3445 -2.589 -3.4595 -5.8155 -7.764 -10.351 -5.499 -2.35 1.1795 -3.779 2.6295 -4.366 4.434 -0.996 2.9995 0.692 6.259 2.1605 9.1235 1.145 2.2245 2.2255 4.3345 1.623 5.549 -1.0605 2.13 -4.2515 3.1345 -7.0695 3.9995 -1.3055 0.3675 -2.5805 0.8355 -3.8139 1.4 -2.51925 1.2645 -24.56005 12.643 -22.3097 22.3865 0.0725 0.4245 0.25445 0.823 0.52785 1.1555s0.62865 0.587 1.0305 0.739c3.047 1.13 9.39485 -3.2845 16.18585 -8.3035 1.19885 -0.9415 2.447 -1.8175 3.73905 -2.625 9.29035 -4.659 22.85235 -7.4435 30.67385 -2.5345 14.5925 9.1585 18.053 15.6475 23.2905 25.466 1.0455 1.9595 2.161 4.0495 3.4405 6.304h1.7225c-1.454 -2.5295 -2.6935 -4.849 -3.8485 -6.999 -5.158 -9.6735 -8.882 -16.662 -23.8135 -26.0355 -3.291 -2.06 -7.239 -2.8545 -11.3115 -2.8545 -7.752 0 -15.932 2.8745 -20.82105 5.324 -1.3813 0.837 -2.71135 1.757 -3.98295 2.7545 -4.27675 3.1645 -12.2377 9.0485 -14.78185 8.1035 -0.1688 -0.067 -0.316 -0.1795 -0.4257 -0.325s-0.1777 -0.3185 -0.19665 -0.4995c-1.61805 -6.999 13.3729 -16.6125 21.52305 -20.707 1.16465 -0.5235 2.36615 -0.9615 3.59465 -1.3095 3.097 -0.975 6.6115 -2.08 7.966 -4.7795 0.946 -1.8945 -0.304 -4.329 -1.628 -6.909 -1.3245 -2.5795 -2.853 -5.549 -2.0665 -7.9685 0.4535 -1.4 1.638 -2.5645 3.61 -3.5545 3.176 -1.5995 5.521 1.085 8.4935 5.044 1.0955 1.465 2.131 2.85 3.1865 3.6445 2.8525 2.15 5.8845 3.6145 8.817 5.0295 4.76 2.2995 9.2555 4.469 12.706 9.3185 2.4895 3.4995 3.455 7.5335 4.481 11.813 0.9505 3.9495 1.9365 8.0285 4.207 11.673 1.18 1.895 2.325 3.9045 3.43 5.849 1.8125 3.1745 3.6845 6.459 5.8155 9.4535 1.0445 1.392 2.1945 2.7005 3.44 3.9145l0.03 0.03h2.081c-0.3435 -0.365 -0.697 -0.725 -1.0405 -1.08 -1.1745 -1.155 -2.261 -2.3965 -3.251 -3.714" stroke-width="0.5"></path>
  <path fill="#2E3120" d="M40.4372 248.3655c-2.07025 0.2325 -4.09415 0.775 -6.0043 1.6095h5.1878c0.31365 -0.05 0.62735 -0.095 0.936 -0.115 2.90875 -0.2155 5.8306 -0.177 8.7327 0.115h8.8221c-5.77 -1.4695 -11.7351 -2.013 -17.6743 -1.6095" stroke-width="0.5"></path>
  <path fill="#2E3120" d="M35.2942 169.588c-1.5733 -0.85 -3.05695 -1.655 -4.3813 -2.4545 -2.7833 -1.744 -5.4448 -3.6765 -7.96595 -5.7845C16.7833 156.425 10.9532 151.7705 0 152.4905v1.5c10.4553 -0.71 15.81245 3.5745 22.01095 8.5335 2.57495 2.1475 5.2912 4.1185 8.13025 5.899 1.3592 0.815 2.8578 1.625 4.446 2.4995 3.71415 2 7.5577 4.0895 9.86785 6.409 0.4431 0.445 0.3535 2.25 0.30865 3.1195 0 0.325 -0.02985 0.62 -0.02985 0.855 0 6.244 -1.64795 11.723 -9.6886 18.187 -1.4936 1.2 -3.31085 1.89 -5.23265 2.6145 -2.0861 0.795 -4.24685 1.615 -6.0093 3.1595 -13.1986 11.5835 -27.23364 28.6105 -20.537255 44.708h1.63302c-6.94532 -15.4475 6.905485 -32.185 19.914885 -43.593 1.5534 -1.37 3.4851 -2.1045 5.5513 -2.8845 1.9467 -0.74 3.98295 -1.5 5.6359 -2.8495 6.1537 -4.9445 10.2512 -10.1235 10.2512 -19.357 0 -0.215 0 -0.5 0.0299 -0.78 0.07465 -1.4995 0.1643 -3.3395 -0.74685 -4.254 -2.48935 -2.475 -6.4275 -4.6045 -10.2412 -6.669" stroke-width="0.5"></path>
  <path fill="#2E3120" d="M0 209.6965v1.6845c0.3320355 0.2 0.63951 0.438 0.916085 0.71 0.368425 0.375 0.497875 1.22 0.288765 2.3745 -0.25167 1.3275 -0.655995 2.621 -1.20485 3.8545v3.4445c1.28451 -2.4045 2.34996 -5.024 2.678555 -7.059 0.27383 -1.6945 0.03485 -2.9295 -0.70698 -3.6745 -0.57194 -0.56 -1.23982 -1.012 -1.971575 -1.3345" stroke-width="0.5"></path>
  <path fill="#2E3120" d="M16.48455 176.027c-0.99575 -1.69 -2.02135 -3.4395 -4.03275 -4.6495 -2.9474 -1.7745 -7.3237 -2.7795 -12.446816415 -2.8895v1.5C4.51571 170.098 8.80735 170.9225 11.69005 172.6575c1.6828 0.9995 2.569 2.4995 3.51 4.129 0.5238 0.9415 1.1145 1.8435 1.76745 2.7 3.744 4.699 5.0783 8.4985 3.983 11.298 -2.10105 5.249 -12.32735 6.789 -20.91066535 7.9335v1.5C9.06625 199.013 19.9149 197.4135 22.3495 191.3295c1.3542 -3.3845 0 -7.569 -4.17715 -12.798 -0.6215 -0.7935 -1.18555 -1.6305 -1.6878 -2.5045" stroke-width="0.5"></path>
  <path fill="#2E3120" d="M128.949 71.7735c-1.0355 -0.385 -1.9915 -0.82 -2.9275 -1.24 -2.2605 -1.0245 -4.396 -1.9995 -7.279 -2.2495 -7.3935 -0.675 -16.4295 0.735 -25.974 2.2245 -16.569 2.59 -33.706 5.2595 -46.083 -1.8395 -9.0513 -5.194 -13.49235 -14.3125 -17.789 -23.1263 -4.1821 -8.5736 -8.12525 -16.6723 -15.9319 -21.38155 -3.6295 -2.18965 -8.19498 -2.99955 -12.9446851 -2.86955v1.49975c4.1074501 -0.105 8.5733851 0.49995 12.2028351 2.6596 7.43825 4.49925 11.29175 12.388 15.36935 20.75665 4.3962 8.9984 8.9617 18.3419 18.3914 23.7664 12.835 7.3635 31.0125 4.499 47.054 1.9995 9.4595 -1.5 18.421 -2.8745 25.6105 -2.2145 2.6335 0.24 4.66 1.1545 6.801 2.1195 0.951 0.43 1.9365 0.875 3.012 1.28 10.326 3.889 16.0865 7.6335 19.2675 12.528 3.525 5.424 4.1425 12.633 1.9915 23.381 -1.125 5.634 -3.3455 10.0785 -5.6955 14.7825 -1.6115 3.08 -3.043 6.2515 -4.2865 9.4985 -0.773 2.2755 -1.4265 4.59 -1.957 6.934 -1.1845 4.8295 -2.4095 9.8185 -5.6255 13.498 -9.375 10.763 -23.3605 16.892 -40.4425 17.732 -14.5475 0.71 -30.868 -2.5745 -44.7686 -8.9985 -5.1231 -2.3495 -10.00225 -5.524 -14.70715 -8.6135 -6.3479 -4.1495 -12.875 -8.439 -20.2883 -10.9085 -3.4851 -1.1695 -7.52784 -1.5395 -11.94895 -1.1195v1.4995c4.281705 -0.42 8.16015 -0.075 11.4909 1.04 7.21415 2.4145 13.68155 6.649 19.9149 10.743 4.76465 3.1095 9.6687 6.334 14.89635 8.754 13.00935 5.975 27.12785 9.1265 41.43285 9.2485 1.361 0 2.707 -0.0335 4.038 -0.1 17.495 -0.855 31.8635 -7.164 41.4925 -18.2425 3.4555 -3.959 4.725 -9.1335 5.9495 -14.1325 0.5175 -2.292 1.1555 -4.555 1.912 -6.779 1.223 -3.199 2.631 -6.324 4.217 -9.3585 2.29 -4.589 4.665 -9.3285 5.825 -15.1625 2.2255 -11.163 1.5385 -18.717 -2.2155 -24.496 -3.3655 -5.184 -9.34 -9.1035 -20.0045 -13.113" stroke-width="0.5"></path>
  <path fill="#2E3120" d="M106.4005 82.002c-6.4375 -1.615 -12.895 -0.59 -19.1435 0.4 -1.867 0.295 -3.7935 0.5995 -5.6755 0.8295 -1.5785 0.19 -3.1665 0.39 -4.76 0.59 -12.82 1.615 -26.0735 3.2845 -38.6347 0.42 -10.11675 -2.2945 -22.1354 -10.918 -24.74425 -21.3515 -0.68705 -2.7595 -0.59745 -5.999 -0.49785 -9.4985 0.2041 -7.35885 0.4381 -15.70255 -8.14521 -18.937C3.25852 33.90555 1.635075 33.62655 0 33.6296v1.4998c1.45939 -0.00215 2.908095 0.24985 4.281705 0.74485C11.8643 38.7338 11.66515 45.83765 11.45605 53.3715c-0.0946 3.4045 -0.1892 6.919 0.54765 9.8835 1.63305 6.554 6.35785 11.498 10.0371 14.4975 4.685 3.8295 10.45535 6.724 15.81745 7.949 12.81525 2.9245 26.20325 1.2395 39.14775 -0.39 1.593 -0.205 3.1815 -0.4 4.7495 -0.59 1.912 -0.23 3.8535 -0.54 5.7355 -0.84 6.099 -0.965 12.407 -1.9645 18.546 -0.425 6.338 1.59 12.88 5.729 17.5 11.0735 5.0735 5.859 7.3785 12.498 6.4725 18.722 -1.389 9.7835 -6.8855 18.337 -16.34 25.416 -16.928 12.663 -41.8215 16.897 -57.7035 14.5375 -7.1745 -1.055 -13.8709 -4.4545 -20.3532 -7.714 -2.4346 -1.2345 -4.9787 -2.4995 -7.46805 -3.644 -3.9083 -1.765 -7.3934 -4.9995 -11.08765 -8.409C11.94895 128.6545 6.6516 123.775 0 122.8955v1.5295c6.14375 0.92 11.1673 5.569 16.06135 10.0685 3.61455 3.3495 7.3586 6.814 11.48595 8.6785 2.48935 1.115 4.9787 2.3845 7.3934 3.6145 6.58685 3.3395 13.39275 6.794 20.8258 7.899 16.186 2.4045 41.5825 -1.91 58.819 -14.818 9.6435 -7.2235 15.4935 -16.3575 16.9275 -26.4105 0.941 -6.649 -1.4935 -13.723 -6.8455 -19.917 -4.8145 -5.539 -11.6505 -9.8585 -18.267 -11.538" stroke-width="0.5"></path>
  <path fill="#2E3120" d="M69.8065 99.229c-3.1615 -1.2695 -6.472 -2.4995 -9.6635 -3.6845 -6.373 -2.3745 -12.99445 -4.829 -18.8196 -7.7435 -1.85205 -0.93 -4.2817 -0.835 -6.63165 -0.74 -1.327 0.103 -2.66075 0.078 -3.98295 -0.075 -3.4254 -0.575 -7.62245 -2.9145 -10.89845 -4.884 -5.7753 -3.4995 -12.78535 -11.888 -14.03005 -19.402 -0.27385 -1.635 -0.4182 -3.3795 -0.57755 -5.224C4.749705 52.0065 4.231915 45.89265 0 42.4182v2.0897c2.88268 3.19445 3.31085 8.2086 3.724085 13.1031 0.15932 1.8745 0.31366 3.644 0.59247 5.339 1.319345 7.9385 8.672945 16.792 14.737045 20.4415 3.3855 2.04 7.7419 4.4645 11.4212 5.0795 1.42575 0.171 2.8647 0.2025 4.2966 0.095 2.1608 -0.085 4.39625 -0.175 5.9048 0.5795 5.8749 2.95 12.5213 5.4195 18.9488 7.809 3.1865 1.185 6.4725 2.4095 9.629 3.6745 6.134 2.4645 16.669 11.183 14.936 19.062 -1.1945 5.409 -5.805 9.1735 -9.4595 11.373 -4.4685 2.621 -9.38 4.392 -14.488 5.224 -13.3877 2.07 -34.5025 -9.2635 -49.9166 -17.532 -3.15655 -1.6945 -6.133815 -3.2895 -8.658025 -4.5595 -0.5626 -0.2845 -1.120215 -0.5595 -1.667875 -0.8295v1.6745l0.995745 0.5c2.489365 1.26 5.476605 2.8545 8.618155 4.5395 14.30885 7.6785 33.46205 17.957 47.2481 17.957 1.205 0.005 2.4085 -0.084 3.5995 -0.265 8.8425 -1.365 22.8375 -7.219 25.1675 -17.757 1.9565 -8.824 -9.086 -18.0825 -15.8225 -20.787" stroke-width="0.5"></path>
  <path fill="#2E3120" d="m36.87245 95 -0.99575 -0.265 -3.09675 -0.83c-8.81235 -2.3495 -20.8808 -5.564 -26.88515 -10.7185C3.684255 81.247 1.56332 77.9025 0 74.443v3.3545c1.428895 2.5945 3.136595 4.9495 4.978725 6.499C11.22705 89.6705 23.48465 92.94 32.4364 95.325c1.09035 0.2895 2.1259 0.5645 3.0868 0.8295l0.99575 0.265c5.2675 1.41 9.81805 2.6295 8.64805 9.0885 -0.4979 2.6145 -2.07615 4.9045 -4.6352 6.624 -3.8585 2.5945 -9.74335 3.7195 -14.31385 2.7345 -7.23405 -1.5245 -14.269 -7.3135 -21.04505 -12.918 -1.74256 -1.4345 -3.48511 -2.8545 -5.1729 -4.194v1.9095c1.394045 1.115 2.80302 2.2745 4.22694 3.4445 6.92541 5.714 14.08981 11.623 21.64751 13.248 1.27345 0.2695 2.57195 0.402 3.87345 0.395 4.0978 0.0155 8.11445 -1.1465 11.5755 -3.3495 2.9026 -1.95 4.72485 -4.5795 5.2725 -7.604 1.4289 -7.7985 -4.4958 -9.4035 -9.72345 -10.798" stroke-width="0.5"></path>
</svg>