<svg width="28" height="33" viewBox="0 0 28 33" fill="none" xmlns="http://www.w3.org/2000/svg">
<path d="M18.0522 0.138726C18.618 -0.185156 19.306 0.0774081 19.5888 0.725173L22.9502 8.42242C25.0165 8.60415 26.3132 9.06821 27.1499 10.2531C27.8148 11.1948 28.0299 12.3663 27.9508 13.9879H0.0155767C-0.0634959 12.3663 0.151717 11.1948 0.816596 10.2531C1.65321 9.06822 2.94985 8.60417 5.01612 8.42242L8.37749 0.725173C8.66036 0.0774081 9.34833 -0.185156 9.91409 0.138726C10.4798 0.462626 10.7092 1.2503 10.4263 1.89807L7.62419 8.31462C8.36211 8.30541 9.1673 8.30541 10.0463 8.30541H17.9201C18.7991 8.30541 19.6042 8.30541 20.3421 8.31462L17.54 1.89807C17.2571 1.2503 17.4864 0.462626 18.0522 0.138726Z" fill="#F0E6D8"/>
<path fill-rule="evenodd" clip-rule="evenodd" d="M1.08713 20.9941C0.771027 19.3051 0.500457 17.8595 0.308319 16.6106H27.6581C27.466 17.8595 27.1954 19.3051 26.8793 20.9941L26.2249 24.491C25.4812 28.4646 25.1094 30.4513 23.8494 31.6175C22.5894 32.7837 20.8149 32.7837 17.2657 32.7837H10.7008C7.15158 32.7837 5.377 32.7837 4.11705 31.6175C2.85709 30.4513 2.48526 28.4646 1.74161 24.491L1.08713 20.9941ZM10.929 19.2333C10.2965 19.2333 9.78369 19.8204 9.78369 20.5446C9.78369 21.2688 10.2965 21.856 10.929 21.856H17.0374C17.6699 21.856 18.1827 21.2688 18.1827 20.5446C18.1827 19.8204 17.6699 19.2333 17.0374 19.2333H10.929Z" fill="#F0E6D8"/>
</svg>
