<svg width="27" height="28" viewBox="0 0 27 28" fill="none" xmlns="http://www.w3.org/2000/svg">
<path d="M17.1541 0.118483C17.6917 -0.158139 18.3455 0.0661129 18.6142 0.619357L21.8084 7.19343C23.7719 7.34865 25.0041 7.74499 25.7991 8.75701C26.4309 9.56128 26.6354 10.5619 26.5602 11.9468H0.0148018C-0.0603369 10.5619 0.144168 9.56128 0.775969 8.75701C1.57096 7.745 2.80309 7.34866 4.76656 7.19343L7.96069 0.619357C8.2295 0.0661129 8.88324 -0.158139 9.42085 0.118483C9.95846 0.39512 10.1764 1.06786 9.90757 1.6211L7.24487 7.10137C7.94608 7.0935 8.71121 7.0935 9.54644 7.0935H17.0286C17.8639 7.0935 18.6289 7.0935 19.3301 7.10137L16.6674 1.6211C16.3985 1.06786 16.6165 0.39512 17.1541 0.118483Z" fill="#015A4E"/>
<path fill-rule="evenodd" clip-rule="evenodd" d="M1.03301 17.9307C0.732626 16.4882 0.475517 15.2535 0.292938 14.1868H26.282C26.0995 15.2535 25.8424 16.4882 25.542 17.9307L24.9202 20.9173C24.2135 24.3111 23.8601 26.0079 22.6628 27.004C21.4655 28 19.7793 28 16.4066 28H10.1683C6.79574 28 5.10945 28 3.91218 27.004C2.71491 26.0079 2.36157 24.3111 1.65492 20.9173L1.03301 17.9307ZM10.3852 16.4268C9.78417 16.4268 9.2969 16.9282 9.2969 17.5468C9.2969 18.1653 9.78417 18.6668 10.3852 18.6668H16.1897C16.7907 18.6668 17.278 18.1653 17.278 17.5468C17.278 16.9282 16.7907 16.4268 16.1897 16.4268H10.3852Z" fill="#015A4E"/>
</svg>
