<svg width="33" height="28" viewBox="0 0 33 28" fill="none" xmlns="http://www.w3.org/2000/svg">
<path d="M1.33511 4.84845C1.33511 3.91662 1.68919 3.02294 2.31945 2.36404C2.94971 1.70513 3.80452 1.33496 4.69584 1.33496H28.2209C29.1123 1.33496 29.9671 1.70513 30.5973 2.36404C31.2276 3.02294 31.5817 3.91662 31.5817 4.84845V22.4159C31.5817 23.3477 31.2276 24.2414 30.5973 24.9003C29.9671 25.5592 29.1123 25.9294 28.2209 25.9294H4.69584C3.80452 25.9294 2.94971 25.5592 2.31945 24.9003C1.68919 24.2414 1.33511 23.3477 1.33511 22.4159V4.84845Z" stroke="#015A4E" stroke-width="2.67" stroke-linecap="round" stroke-linejoin="round"/>
<path d="M1.33511 4.84839L16.4584 15.3889L31.5817 4.84839" stroke="#015A4E" stroke-width="2.67" stroke-linecap="round" stroke-linejoin="round"/>
</svg>
