<svg width="33" height="33" viewBox="0 0 33 33" fill="none" xmlns="http://www.w3.org/2000/svg">
<path fill-rule="evenodd" clip-rule="evenodd" d="M3.38675 3.3867C3.56191 3.21157 3.79946 3.11317 4.04717 3.11317H28.9528C29.2006 3.11317 29.438 3.21157 29.6133 3.3867C29.7884 3.56186 29.8868 3.79941 29.8868 4.04712V28.9525C29.8868 29.2003 29.7884 29.4376 29.6133 29.613C29.438 29.788 29.2006 29.8864 28.9528 29.8864H21.4811V21.5058H23.8721C24.275 21.5058 24.6613 21.3457 24.9463 21.0608C25.2312 20.7759 25.3913 20.3895 25.3913 19.9865V18.0688C25.3913 17.8693 25.352 17.6718 25.2758 17.4874C25.1993 17.3031 25.0875 17.1356 24.9463 16.9946C24.8053 16.8535 24.6377 16.7416 24.4534 16.6652C24.2691 16.5889 24.0716 16.5496 23.8721 16.5496H21.5808V14.8311C21.5808 12.7391 22.5272 12.7391 23.4736 12.7391H25.3166C25.5171 12.7474 25.7168 12.7115 25.9019 12.634C26.0869 12.5566 26.2528 12.4394 26.3875 12.2908C26.5323 12.153 26.6468 11.9867 26.724 11.8023C26.8012 11.618 26.8393 11.4197 26.8358 11.2199V9.37686C26.8426 9.17406 26.8092 8.97193 26.7375 8.78205C26.666 8.59214 26.5579 8.41821 26.4189 8.27017C26.2802 8.12216 26.1136 8.00291 25.9288 7.9193C25.744 7.83569 25.5442 7.78935 25.3415 7.78292C25.0705 7.78292 24.7923 7.77998 24.5094 7.77702C22.02 7.75079 19.1542 7.72061 17.3837 9.64659C15.8153 11.3528 15.8525 13.434 15.8905 15.5618C15.8964 15.8903 15.9023 16.22 15.9023 16.5496H13.6857C13.4841 16.5463 13.2838 16.5831 13.0966 16.658C12.9094 16.7329 12.739 16.8443 12.5953 16.9857C12.4515 17.1271 12.3374 17.2957 12.2595 17.4816C12.1816 17.6676 12.1415 17.8672 12.1415 18.0688V19.9865C12.1415 20.1882 12.1816 20.3878 12.2595 20.5737C12.3374 20.7597 12.4515 20.9283 12.5953 21.0697C12.739 21.2111 12.9094 21.3225 13.0966 21.3974C13.2838 21.4722 13.4841 21.5091 13.6857 21.5058H15.9023V29.8864H4.04717C3.79946 29.8864 3.56191 29.788 3.38675 29.613C3.21161 29.4376 3.11321 29.2003 3.11321 28.9525V4.04712C3.11321 3.79941 3.21161 3.56186 3.38675 3.3867ZM4.04717 0C2.97379 0 1.94438 0.426392 1.18539 1.18537C0.426397 1.94436 0 2.97375 0 4.04712V28.9525C0 30.0259 0.426397 31.0552 1.18539 31.8141C1.94438 32.5732 2.97379 32.9996 4.04717 32.9996H28.9528C30.0263 32.9996 31.0556 32.5732 31.8145 31.8141C32.5736 31.0552 33 30.0259 33 28.9525V4.04712C33 2.97375 32.5736 1.94436 31.8145 1.18537C31.0556 0.426392 30.0263 0 28.9528 0H4.04717Z" fill="#015A4E"/>
</svg>
