<svg width="34" height="34" viewBox="0 0 34 34" fill="none" xmlns="http://www.w3.org/2000/svg">
<g clip-path="url(#clip0_441_645)">
<path fill-rule="evenodd" clip-rule="evenodd" d="M31.4988 2.38089C29.9688 0.909157 28.1023 0.0772721 26.1674 0.00512457C24.2324 -0.067023 22.3289 0.624211 20.7305 1.97935C19.2246 2.96791 17.9095 4.35037 16.8764 6.03127C16.4391 5.24967 15.9361 4.52747 15.3758 3.87741C14.6252 2.75111 13.6567 1.87914 12.5607 1.34277C11.4648 0.806767 10.2775 0.623844 9.109 0.811137C6.94205 1.06183 4.85909 1.97752 3.04836 3.47586C-1.71781 7.63783 -0.393974 16.3261 3.57783 22.3862C7.09006 27.0094 11.2087 30.861 15.7584 33.776C15.8471 33.8667 15.9505 33.932 16.0615 33.968C16.1728 34.0041 16.2888 34.0096 16.4019 33.9848C16.5149 33.9597 16.6221 33.9046 16.7164 33.8234C16.8106 33.7421 16.8893 33.6361 16.9475 33.5133C17.0056 33.3905 17.0417 33.2535 17.0529 33.1117C17.0644 32.97 17.0508 32.8268 17.0133 32.6923C16.9757 32.5575 16.9152 32.4347 16.8356 32.332C16.756 32.2292 16.6597 32.149 16.5528 32.0969C12.3584 29.0365 8.56807 25.1952 5.31368 20.7067C4.25708 19.1414 3.49238 17.3049 3.07537 15.3292C2.65837 13.3535 2.59876 11.2878 2.90123 9.28046C3.40663 7.94974 4.19923 6.8187 5.19122 6.01305C6.18322 5.20776 7.33556 4.75921 8.52079 4.71731C9.3824 4.4054 10.3004 4.4269 11.152 4.77925C12.0036 5.13125 12.7484 5.79733 13.287 6.68861C15.0815 8.84247 14.7286 9.49945 15.5819 10.6312C15.7623 10.8841 15.9887 11.0801 16.2424 11.2022C16.4961 11.3243 16.7698 11.3695 17.0406 11.3338C17.3113 11.298 17.5712 11.1825 17.7985 10.9967C18.0258 10.8112 18.2141 10.5605 18.3474 10.2661C18.5829 9.82812 18.7888 9.0979 18.9652 8.80603C20.2674 6.62193 22.1048 5.02084 24.2022 4.24252C25.0905 3.71125 26.0837 3.51157 27.0616 3.66752C28.0395 3.82312 28.9598 4.32815 29.7107 5.12068C30.4616 5.91357 31.0111 6.95971 31.2918 8.13229C31.5725 9.30487 31.5731 10.5536 31.2927 11.7262C29.8511 19.3563 24.5258 25.6718 19.2889 29.9795C19.115 30.1544 18.999 30.4022 18.9629 30.6762C18.9268 30.9499 18.9732 31.2308 19.093 31.4651C19.2128 31.6998 19.3978 31.871 19.6131 31.9472C19.8283 32.0233 20.0583 31.9986 20.2597 31.8779C24.4165 28.7592 28.0359 24.6526 30.9103 19.7943C34.0584 13.8804 35.6471 6.94404 31.4988 2.38089Z" fill="#6c4c36"/>
</g>
<defs>
<clipPath id="clip0_441_645">
<rect width="34" height="34" fill="white"/>
</clipPath>
</defs>
</svg>
