<svg width="35" height="35" viewBox="0 0 35 35" fill="none" xmlns="http://www.w3.org/2000/svg">
<path fill-rule="evenodd" clip-rule="evenodd" d="M0 8.21939C0 3.67995 3.67997 0 8.21942 0H25.8521C30.3917 0 34.0717 3.67995 34.0717 8.21939V25.8521C34.0717 30.3915 30.3917 34.0714 25.8521 34.0714H8.21942C3.67997 34.0714 0 30.3915 0 25.8521V8.21939ZM8.21942 3.21429C5.45516 3.21429 3.21429 5.45516 3.21429 8.21939V25.8521C3.21429 28.6164 5.45516 30.8571 8.21942 30.8571H25.8521C28.6164 30.8571 30.8574 28.6164 30.8574 25.8521V8.21939C30.8574 5.45516 28.6164 3.21429 25.8521 3.21429H8.21942ZM25.9329 10.0443C24.6901 10.0443 23.6828 9.03698 23.6828 7.79433C23.6828 6.55169 24.6901 5.54433 25.9329 5.54433C27.1754 5.54433 28.1829 6.55169 28.1829 7.79433C28.1829 9.03698 27.1754 10.0443 25.9329 10.0443ZM17.0351 9.19399C12.7042 9.19399 9.19337 12.7049 9.19337 17.0357C9.19337 21.3666 12.7042 24.8775 17.0351 24.8775C21.366 24.8775 24.8768 21.3666 24.8768 17.0357C24.8768 12.7049 21.366 9.19399 17.0351 9.19399Z" fill="#015A4E"/>
</svg>
