<svg width="28" height="35" viewBox="0 0 28 35" fill="none" xmlns="http://www.w3.org/2000/svg">
<path d="M14.0039 17.0625C14.8472 17.0625 15.5677 16.7622 16.1656 16.1617C16.7635 15.5612 17.0625 14.8393 17.0625 13.9961C17.0625 13.1528 16.7622 12.4323 16.1617 11.8344C15.5612 11.2365 14.8393 10.9375 13.9961 10.9375C13.1528 10.9375 12.4323 11.2378 11.8344 11.8383C11.2365 12.4388 10.9375 13.1607 10.9375 14.0039C10.9375 14.8472 11.2378 15.5677 11.8383 16.1656C12.4388 16.7635 13.1607 17.0625 14.0039 17.0625ZM14 31.5437C17.8791 28.0146 20.7448 24.8135 22.5969 21.9406C24.449 19.0677 25.375 16.5375 25.375 14.35C25.375 10.9145 24.2771 8.10136 22.0811 5.91062C19.8851 3.72021 17.1914 2.625 14 2.625C10.8086 2.625 8.11493 3.72021 5.91894 5.91062C3.72295 8.10136 2.625 10.9145 2.625 14.35C2.625 16.5375 3.57289 19.0677 5.46875 21.9406C7.36461 24.8135 10.2084 28.0146 14 31.5437ZM14 35C9.30414 31.0041 5.79688 27.2927 3.47813 23.8656C1.15938 20.4385 0 17.2666 0 14.35C0 9.975 1.40729 6.48961 4.22188 3.89375C7.03649 1.29791 10.2959 0 14 0C17.7041 0 20.9635 1.29791 23.7781 3.89375C26.5927 6.48961 28 9.975 28 14.35C28 17.2666 26.8406 20.4385 24.5219 23.8656C22.2031 27.2927 18.6959 31.0041 14 35Z" fill="#015A4E"/>
</svg>
