<svg width="30" height="28" viewBox="0 0 30 28" fill="none" xmlns="http://www.w3.org/2000/svg">
<path d="M1.29789 0H28.5536C28.5536 0 29.8515 0 29.8515 1.47368V2.94737C29.8515 2.94737 29.8515 4.42105 28.5536 4.42105H1.29789C1.29789 4.42105 0 4.42105 0 2.94737V1.47368C0 1.47368 0 0 1.29789 0Z" fill="#F0E6D8"/>
<path d="M1.29789 11.7896H28.5536C28.5536 11.7896 29.8515 11.7896 29.8515 13.2633V14.7369C29.8515 14.7369 29.8515 16.2106 28.5536 16.2106H1.29789C1.29789 16.2106 0 16.2106 0 14.7369V13.2633C0 13.2633 0 11.7896 1.29789 11.7896Z" fill="#F0E6D8"/>
<path d="M1.29789 23.579H28.5536C28.5536 23.579 29.8515 23.579 29.8515 25.0527V26.5264C29.8515 26.5264 29.8515 28.0001 28.5536 28.0001H1.29789C1.29789 28.0001 0 28.0001 0 26.5264V25.0527C0 25.0527 0 23.579 1.29789 23.579Z" fill="#F0E6D8"/>
</svg>
