<svg width="23" height="25" viewBox="0 0 23 25" fill="none" xmlns="http://www.w3.org/2000/svg">
<path fill-rule="evenodd" clip-rule="evenodd" d="M2.00292 10.5313C2.00292 5.92677 5.41054 2.19403 9.61403 2.19403C13.8175 2.19403 17.2251 5.92677 17.2251 10.5313C17.2251 15.1359 13.8175 18.8686 9.61403 18.8686C5.41054 18.8686 2.00292 15.1359 2.00292 10.5313ZM9.61403 0C4.30435 0 0 4.71504 0 10.5313C0 16.3476 4.30435 21.0627 9.61403 21.0627C11.5442 21.0627 13.3416 20.4396 14.8475 19.367L19.0137 23.9307C19.7958 24.7874 21.064 24.7874 21.8463 23.9307C22.6284 23.0738 22.6284 21.6846 21.8463 20.8278L17.68 16.2642C18.6592 14.6145 19.2281 12.6457 19.2281 10.5313C19.2281 4.71504 14.9237 0 9.61403 0Z" fill="#E49128"/>
</svg>
