<svg xmlns="http://www.w3.org/2000/svg" viewBox="0 0 16 16" fill="#000000" id="Sort-Ascending--Streamline-Phosphor" height="16" width="16">
  <desc>
    Sort Ascending Streamline Icon: https://streamlinehq.com
  </desc>
  <path d="M7.34643125 7.34643125c0 0.3608125 -0.2925 0.6533125 -0.6533125 0.6533125H0.8133125c-0.50291875 0 -0.81724375 -0.544425 -0.5657875 -0.97996875 0.11670625 -0.2021375 0.33238125 -0.32665625 0.5657875 -0.32665625h5.87980625c0.3608125 0 0.6533125 0.2925 0.6533125 0.6533125ZM0.8133125 2.77325h11.1063c0.50291875 0 0.81724375 -0.54443125 0.5657875 -0.97996875 -0.11670625 -0.2021375 -0.33238125 -0.32665625 -0.5657875 -0.32665625H0.8133125c-0.50291875 0 -0.81724375 0.544425 -0.5657875 0.97996875 0.11670625 0.20213125 0.33238125 0.32665625 0.5657875 0.32665625Zm4.57318125 9.1463625H0.8133125c-0.50291875 0 -0.81724375 0.54443125 -0.5657875 0.97996875 0.11670625 0.2021375 0.33238125 0.32665625 0.5657875 0.32665625h4.57318125c0.50291875 0 0.81724375 -0.544425 0.5657875 -0.97996875 -0.11670625 -0.20213125 -0.33238125 -0.32665625 -0.5657875 -0.32665625Zm10.2619 -1.7688375c-0.25519375 -0.25548125 -0.66924375 -0.25548125 -0.9244375 0l-2.15103125 2.15184375V6.03980625c0 -0.50291875 -0.544425 -0.81724375 -0.97996875 -0.56578125 -0.20213125 0.1167 -0.32665625 0.332375 -0.32665625 0.56578125v6.2628125l-2.151025 -2.15184375c-0.35581875 -0.35581875 -0.96338125 -0.19301875 -1.09361875 0.29303125 -0.06044375 0.22558125 0.00404375 0.46626875 0.16918125 0.6314l3.26655625 3.2665625c0.25519375 0.255475 0.66924375 0.255475 0.9244375 0l3.2665625 -3.2665625c0.255475 -0.2551875 0.255475 -0.66924375 0 -0.92443125Z" stroke-width="0.0625"></path>
</svg>